HIERARCHY
ROOT Hips
{
	OFFSET 0.000000 83.214638 0.000000
	CHANNELS 6 Xposition Yposition Zposition Xrotation Yrotation Zrotation
	JOINT Pelvis
	{
		OFFSET 0.000000 0.000000 0.000000
		CHANNELS 3 Xrotation Yrotation Zrotation
		JOINT LeftUpLeg
		{
			OFFSET 8.479700 -4.795502 -0.379100
			CHANNELS 3 Xrotation Yrotation Zrotation
			JOINT LeftLeg
			{
				OFFSET 0.024144 -32.555107 0.112900
				CHANNELS 3 Xrotation Yrotation Zrotation
				JOINT LeftFoot
				{
					OFFSET -0.024144 -32.638630 -3.012600
					CHANNELS 3 Xrotation Yrotation Zrotation
					JOINT LeftToeBase
					{
						OFFSET 0.970200 -13.225400 11.864200
						CHANNELS 3 Xrotation Yrotation Zrotation
						End Site
						{
							OFFSET 0.000000 12.319262 0.000000
						}
					}
					JOINT LFootTongue
					{
						OFFSET 1.142400 -1.059800 6.665200
						CHANNELS 3 Xrotation Yrotation Zrotation
						End Site
						{
							OFFSET 0.000000 12.319262 0.000000
						}
					}
				}
				JOINT LeftPantLeg
				{
					OFFSET 0.918482 -16.533964 -2.284700
					CHANNELS 3 Xrotation Yrotation Zrotation
					End Site
					{
						OFFSET 0.350399 24.744368 0.000000
					}
				}
			}
		}
		JOINT RightUpLeg
		{
			OFFSET -8.479700 -4.795502 -0.379100
			CHANNELS 3 Xrotation Yrotation Zrotation
			JOINT RightLeg
			{
				OFFSET -0.023144 -32.555092 0.112900
				CHANNELS 3 Xrotation Yrotation Zrotation
				JOINT RightFoot
				{
					OFFSET 0.023144 -32.638641 -3.012700
					CHANNELS 3 Xrotation Yrotation Zrotation
					JOINT RightToeBase
					{
						OFFSET -0.970200 -13.225400 11.864200
						CHANNELS 3 Xrotation Yrotation Zrotation
						End Site
						{
							OFFSET 0.000000 12.319244 0.000000
						}
					}
					JOINT RFootTongue
					{
						OFFSET -1.142200 -1.059800 6.665200
						CHANNELS 3 Xrotation Yrotation Zrotation
						End Site
						{
							OFFSET 0.000000 12.319243 0.000000
						}
					}
				}
				JOINT RightPantLeg
				{
					OFFSET -0.919482 -16.533978 -2.284800
					CHANNELS 3 Xrotation Yrotation Zrotation
					End Site
					{
						OFFSET -0.350400 24.744419 0.000000
					}
				}
			}
		}
	}
	JOINT Spine
	{
		OFFSET 0.000000 7.722000 1.166200
		CHANNELS 3 Xrotation Yrotation Zrotation
		JOINT Spine1
		{
			OFFSET 0.000000 12.024101 0.248800
			CHANNELS 3 Xrotation Yrotation Zrotation
			JOINT Spine2
			{
				OFFSET 0.000000 11.502998 -0.491200
				CHANNELS 3 Xrotation Yrotation Zrotation
				JOINT Neck
				{
					OFFSET 0.000000 18.430702 -3.123100
					CHANNELS 3 Xrotation Yrotation Zrotation
					JOINT Head
					{
						OFFSET 0.000000 9.051102 1.034000
						CHANNELS 3 Xrotation Yrotation Zrotation
						JOINT HairB
						{
							OFFSET 0.208400 24.786102 24.822300
							CHANNELS 3 Xrotation Yrotation Zrotation
							End Site
							{
								OFFSET 0.000000 32.263779 0.000000
							}
						}
						JOINT HairA
						{
							OFFSET -7.081100 24.428299 23.196600
							CHANNELS 3 Xrotation Yrotation Zrotation
							End Site
							{
								OFFSET 0.000000 32.263779 0.000000
							}
						}
						JOINT Hat
						{
							OFFSET 16.728800 15.048294 -15.439601
							CHANNELS 3 Xrotation Yrotation Zrotation
							End Site
							{
								OFFSET 0.000000 32.263779 0.000000
							}
						}
					}
				}
				JOINT LeftShoulder
				{
					OFFSET 6.197800 13.665199 -4.064700
					CHANNELS 3 Xrotation Yrotation Zrotation
					JOINT LeftArm
					{
						OFFSET 7.778100 -0.187103 -1.709300
						CHANNELS 3 Xrotation Yrotation Zrotation
						JOINT LeftForeArm
						{
							OFFSET 22.049376 0.000000 0.000000
							CHANNELS 3 Xrotation Yrotation Zrotation
							JOINT LeftHand
							{
								OFFSET 23.009392 0.000000 0.000000
								CHANNELS 3 Xrotation Yrotation Zrotation
								JOINT LeftHandThumb1
								{
									OFFSET 3.507191 -2.063065 3.133727
									CHANNELS 3 Xrotation Yrotation Zrotation
									JOINT LeftHandThumb2
									{
										OFFSET 3.101337 -1.790558 1.790558
										CHANNELS 3 Xrotation Yrotation Zrotation
										JOINT LeftHandThumb3
										{
											OFFSET 3.058640 -1.765907 1.765906
											CHANNELS 3 Xrotation Yrotation Zrotation
											End Site
											{
												OFFSET -0.415260 3.926476 -0.049563
											}
										}
									}
								}
								JOINT LeftHandIndex1
								{
									OFFSET 11.334419 -0.901459 3.706815
									CHANNELS 3 Xrotation Yrotation Zrotation
									JOINT LeftHandIndex2
									{
										OFFSET 3.283112 0.000000 0.000000
										CHANNELS 3 Xrotation Yrotation Zrotation
										JOINT LeftHandIndex3
										{
											OFFSET 3.323853 0.000000 0.000000
											CHANNELS 3 Xrotation Yrotation Zrotation
											End Site
											{
												OFFSET -1.135597 3.097809 0.402452
											}
										}
									}
								}
								JOINT LeftHandMiddle1
								{
									OFFSET 11.335861 0.000000 0.000000
									CHANNELS 3 Xrotation Yrotation Zrotation
									JOINT LeftHandMiddle2
									{
										OFFSET 3.410492 0.000000 0.000000
										CHANNELS 3 Xrotation Yrotation Zrotation
										JOINT LeftHandMiddle3
										{
											OFFSET 3.312172 0.000000 0.000000
											CHANNELS 3 Xrotation Yrotation Zrotation
											End Site
											{
												OFFSET -1.150200 3.080154 0.400270
											}
										}
									}
								}
								JOINT LeftHandRing1
								{
									OFFSET 11.514786 -0.013176 -3.003090
									CHANNELS 3 Xrotation Yrotation Zrotation
									JOINT LeftHandRing2
									{
										OFFSET 3.053307 0.000000 0.000000
										CHANNELS 3 Xrotation Yrotation Zrotation
										JOINT LeftHandRing3
										{
											OFFSET 3.295807 0.000000 0.000000
											CHANNELS 3 Xrotation Yrotation Zrotation
											End Site
											{
												OFFSET -1.281006 3.013344 0.375733
											}
										}
									}
								}
								JOINT LeftHandPinky1
								{
									OFFSET 10.518692 -0.960396 -5.730441
									CHANNELS 3 Xrotation Yrotation Zrotation
									JOINT LeftHandPinky2
									{
										OFFSET 2.861649 0.000000 0.000000
										CHANNELS 3 Xrotation Yrotation Zrotation
										JOINT LeftHandPinky3
										{
											OFFSET 2.863380 0.000000 0.000000
											CHANNELS 3 Xrotation Yrotation Zrotation
											End Site
											{
												OFFSET -0.843597 2.711159 0.369971
											}
										}
									}
								}
							}
							JOINT LSleeve
							{
								OFFSET 6.676277 -0.344902 -1.011730
								CHANNELS 3 Xrotation Yrotation Zrotation
								End Site
								{
									OFFSET 0.000000 14.885353 0.000000
								}
							}
						}
					}
				}
				JOINT RightShoulder
				{
					OFFSET -6.197800 13.665199 -4.064700
					CHANNELS 3 Xrotation Yrotation Zrotation
					JOINT RightArm
					{
						OFFSET -7.778100 -0.187103 -1.709300
						CHANNELS 3 Xrotation Yrotation Zrotation
						JOINT RightForeArm
						{
							OFFSET -22.049376 0.000000 0.000000
							CHANNELS 3 Xrotation Yrotation Zrotation
							JOINT RightHand
							{
								OFFSET -23.009392 0.000000 0.000000
								CHANNELS 3 Xrotation Yrotation Zrotation
								JOINT RightHandThumb1
								{
									OFFSET -3.507191 -2.063065 3.133727
									CHANNELS 3 Xrotation Yrotation Zrotation
									JOINT RightHandThumb2
									{
										OFFSET -3.101337 -1.790558 1.790558
										CHANNELS 3 Xrotation Yrotation Zrotation
										JOINT RightHandThumb3
										{
											OFFSET -3.058640 -1.765907 1.765906
											CHANNELS 3 Xrotation Yrotation Zrotation
											End Site
											{
												OFFSET 0.415260 3.926476 -0.049563
											}
										}
									}
								}
								JOINT RightHandIndex1
								{
									OFFSET -11.334419 -0.901459 3.706815
									CHANNELS 3 Xrotation Yrotation Zrotation
									JOINT RightHandIndex2
									{
										OFFSET -3.283112 0.000000 0.000000
										CHANNELS 3 Xrotation Yrotation Zrotation
										JOINT RightHandIndex3
										{
											OFFSET -3.323853 0.000000 0.000000
											CHANNELS 3 Xrotation Yrotation Zrotation
											End Site
											{
												OFFSET 1.135597 3.097809 0.402452
											}
										}
									}
								}
								JOINT RightHandMiddle1
								{
									OFFSET -11.335861 0.000000 0.000000
									CHANNELS 3 Xrotation Yrotation Zrotation
									JOINT RightHandMiddle2
									{
										OFFSET -3.410492 0.000000 0.000000
										CHANNELS 3 Xrotation Yrotation Zrotation
										JOINT RightHandMiddle3
										{
											OFFSET -3.312172 0.000000 0.000000
											CHANNELS 3 Xrotation Yrotation Zrotation
											End Site
											{
												OFFSET 1.150200 3.080154 0.400270
											}
										}
									}
								}
								JOINT RightHandRing1
								{
									OFFSET -11.514786 -0.013176 -3.003090
									CHANNELS 3 Xrotation Yrotation Zrotation
									JOINT RightHandRing2
									{
										OFFSET -3.053307 0.000000 0.000000
										CHANNELS 3 Xrotation Yrotation Zrotation
										JOINT RightHandRing3
										{
											OFFSET -3.295807 0.000000 0.000000
											CHANNELS 3 Xrotation Yrotation Zrotation
											End Site
											{
												OFFSET 1.281006 3.013344 0.375733
											}
										}
									}
								}
								JOINT RightHandPinky1
								{
									OFFSET -10.518692 -0.960396 -5.730441
									CHANNELS 3 Xrotation Yrotation Zrotation
									JOINT RightHandPinky2
									{
										OFFSET -2.861649 0.000000 0.000000
										CHANNELS 3 Xrotation Yrotation Zrotation
										JOINT RightHandPinky3
										{
											OFFSET -2.863380 0.000000 0.000000
											CHANNELS 3 Xrotation Yrotation Zrotation
											End Site
											{
												OFFSET 0.843597 2.711159 0.369971
											}
										}
									}
								}
							}
							JOINT RSleeve
							{
								OFFSET -6.676277 -0.344902 -1.011730
								CHANNELS 3 Xrotation Yrotation Zrotation
								End Site
								{
									OFFSET 0.000000 14.885353 0.000000
								}
							}
						}
					}
				}
				JOINT Backpack
				{
					OFFSET 0.000000 -2.471497 36.677502
					CHANNELS 3 Xrotation Yrotation Zrotation
					End Site
					{
						OFFSET 0.000000 20.427315 0.000000
					}
				}
				JOINT Hood
				{
					OFFSET 0.000000 18.754097 -10.431000
					CHANNELS 3 Xrotation Yrotation Zrotation
					JOINT Hood1
					{
						OFFSET 0.000000 -5.011002 -7.685901
						CHANNELS 3 Xrotation Yrotation Zrotation
						End Site
						{
							OFFSET 0.000000 9.175140 0.000000
						}
					}
				}
				JOINT LHoodieString
				{
					OFFSET 5.250500 16.397697 3.089900
					CHANNELS 3 Xrotation Yrotation Zrotation
					JOINT LHoodieString1
					{
						OFFSET 0.257700 -6.364304 3.694600
						CHANNELS 3 Xrotation Yrotation Zrotation
						JOINT LHoodieString2
						{
							OFFSET 0.000000 -9.643799 2.679100
							CHANNELS 3 Xrotation Yrotation Zrotation
							End Site
							{
								OFFSET 0.000000 10.009018 0.000000
							}
						}
					}
				}
				JOINT RHoodieString
				{
					OFFSET -5.250500 16.397697 3.089900
					CHANNELS 3 Xrotation Yrotation Zrotation
					JOINT RHoodieString1
					{
						OFFSET -0.257700 -6.364304 3.694600
						CHANNELS 3 Xrotation Yrotation Zrotation
						JOINT RHoodieString2
						{
							OFFSET 0.000000 -9.643799 2.679100
							CHANNELS 3 Xrotation Yrotation Zrotation
							End Site
							{
								OFFSET 0.000000 10.009018 0.000000
							}
						}
					}
				}
			}
			JOINT LBackpack_Strap
			{
				OFFSET 15.223200 -7.719803 -6.610900
				CHANNELS 3 Xrotation Yrotation Zrotation
				End Site
				{
					OFFSET 0.000000 16.040596 0.000000
				}
			}
			JOINT RBackpack_Strap
			{
				OFFSET -15.223000 -7.719803 -6.610900
				CHANNELS 3 Xrotation Yrotation Zrotation
				End Site
				{
					OFFSET 0.000000 16.040596 0.000000
				}
			}
		}
	}
	JOINT BoyFacialAnim_Joint
	{
		OFFSET 1.000000 -82.208099 -1.550900
		CHANNELS 3 Xrotation Yrotation Zrotation
		End Site
		{
			OFFSET 0.000000 30.012791 0.000000
		}
	}
}
MOTION
Frames: 4
Frame Time: 0.033333
-275.578156 76.141373 39.356228 -12.488914 116.557547 11.672888 -0.000000 -0.000001 -0.000000 -14.799268 -21.481264 1.178695 60.570562 0.438772 -1.556364 0.681236 -8.380789 17.357428 0.000001 -0.000000 0.000001 0.000001 -0.000000 0.000001 0.000003 -0.000000 0.000001 -72.592951 -2.155690 -13.350583 109.144504 0.301837 4.390148 0.520370 -3.965685 0.375592 -0.000002 0.000000 -0.000000 -0.000002 0.000000 -0.000000 -0.000002 -0.000001 0.000000 15.805041 -6.849380 3.138218 9.903110 -4.317936 3.983145 9.976326 -4.137450 3.981467 -2.508196 -0.036814 1.419964 -27.097481 1.095971 -1.135430 0.000000 -0.000000 0.000000 0.000000 -0.000000 0.000000 0.000000 -0.000000 0.000000 -0.711173 4.132782 -4.919495 -15.224475 -14.490612 -69.365823 0.002223 -95.155463 0.002207 -19.919700 -11.022219 -2.350781 -1.355477 13.245108 0.142133 6.147290 16.933960 -6.183333 0.000000 0.000001 0.000001 3.973204 6.239229 -64.948255 3.973199 6.239230 -64.948303 -0.000000 0.000001 -0.000003 4.178594 6.332296 -65.589630 3.973149 6.239172 -64.947702 -0.000000 -0.000001 0.000004 4.238881 6.370011 -63.876284 4.107651 6.299927 -66.179533 -0.000000 -0.000001 0.000001 7.673537 7.958227 -64.895328 3.989906 2.159262 -65.176295 -0.000000 0.000001 -0.000002 -0.000001 0.000000 0.000000 14.273045 4.982333 -8.234326 28.473783 -25.498734 80.556644 -0.000012 56.467725 -0.000015 20.018856 6.648377 4.995561 11.720071 -2.786676 0.599952 21.272120 -18.088861 5.034199 -0.000000 -0.000004 -0.000002 4.724086 -6.584317 71.286923 4.800195 -6.609436 71.950668 0.000002 0.000002 0.000000 4.868089 -6.631512 71.875324 4.800200 -6.609433 71.950654 0.000003 -0.000000 -0.000002 4.822598 -6.616689 71.915178 4.800184 -6.609423 71.950668 0.000002 0.000003 -0.000003 4.935641 -6.652948 74.177897 4.800204 -6.609423 71.950722 0.000001 -0.000002 -0.000002 -0.000000 -0.000000 -0.000001 0.000003 0.000001 -0.000000 0.000003 0.000001 -0.000000 0.000003 0.000001 -0.000000 0.000003 0.000001 -0.000000 0.000003 0.000001 -0.000001 -0.000001 0.000000 -0.000000 0.000003 0.000001 -0.000000 0.000003 0.000001 -0.000001 -0.000001 0.000000 -0.000000 0.000002 -0.000000 0.000001 0.000002 -0.000000 0.000001 -0.000000 -0.000001 -0.000000 
-261.457275 76.448746 38.338676 -15.031587 114.023151 14.684053 0.000000 -0.000001 0.000000 -4.021470 -19.424575 4.923088 60.442653 0.618923 -1.677581 10.115991 -8.010360 18.108046 -0.000003 -0.000000 -0.000000 -0.000003 -0.000000 -0.000000 -0.000002 0.000000 -0.000000 -65.473592 -0.163258 -11.887859 90.526514 -1.532860 3.252348 -2.603151 -2.343561 -0.291374 -0.000001 -0.000000 0.000000 -0.000001 -0.000000 0.000000 0.000000 -0.000001 -0.000000 15.644480 -5.949586 3.892991 9.526645 -3.965530 3.519202 9.579157 -3.816195 3.534971 -2.505735 -0.030748 1.408055 -28.071946 1.975985 -1.677054 0.000001 0.000001 -0.000000 0.000001 0.000001 -0.000000 0.000001 0.000001 -0.000000 -0.726250 4.252265 -4.992700 -15.837435 -11.661850 -69.836410 0.002828 -95.882961 0.002824 -19.476964 -12.298199 -2.490847 -1.355456 13.245111 0.142130 6.147288 16.933968 -6.183340 0.000001 -0.000001 -0.000001 3.973217 6.239228 -64.948248 3.973204 6.239217 -64.948323 0.000001 0.000000 -0.000002 4.178607 6.332310 -65.589630 3.973137 6.239181 -64.947681 0.000001 -0.000001 0.000000 4.238893 6.369997 -63.876284 4.107652 6.299945 -66.179554 -0.000001 0.000000 -0.000002 7.673547 7.958234 -64.895328 3.989918 2.159272 -65.176308 0.000000 0.000000 0.000003 -0.000001 0.000001 0.000000 14.224724 5.036286 -8.322095 28.644973 -22.611222 80.437922 0.000035 56.222521 -0.000015 18.444303 7.115825 2.700791 11.720085 -2.786666 0.599972 21.272134 -18.088854 5.034201 -0.000000 0.000002 0.000001 4.718112 -6.582278 71.234324 4.800207 -6.609433 71.950688 -0.000000 -0.000006 0.000001 4.861786 -6.629527 71.820225 4.800201 -6.609420 71.950681 0.000004 0.000001 -0.000000 4.816165 -6.614595 71.858842 4.800187 -6.609406 71.950674 -0.000003 0.000002 -0.000001 4.929426 -6.651039 74.123890 4.800207 -6.609431 71.950695 0.000001 0.000003 -0.000003 -0.000001 -0.000002 -0.000002 -0.000000 -0.000000 -0.000000 -0.000000 -0.000000 -0.000000 -0.000000 -0.000000 -0.000000 -0.000000 -0.000000 -0.000000 -0.000000 -0.000000 -0.000000 -0.000002 0.000000 -0.000000 -0.000000 -0.000000 -0.000000 -0.000000 -0.000000 -0.000000 -0.000002 0.000000 -0.000000 0.000001 -0.000001 0.000000 0.000001 -0.000001 0.000000 0.000000 -0.000001 0.000000 
-247.722626 76.469574 37.248657 -18.432620 111.724485 18.944911 0.000000 0.000002 -0.000000 3.993736 -17.639954 6.845037 67.588922 0.733063 -2.198474 17.064307 -7.894554 19.022082 0.000000 0.000000 -0.000001 0.000000 0.000000 -0.000001 -0.000000 0.000000 -0.000001 -60.564326 2.634026 -11.021308 71.064307 -2.670579 2.056271 -4.651688 -2.114473 -0.894583 -0.000001 0.000001 0.000000 -0.000001 0.000001 0.000000 0.000001 -0.000001 -0.000000 15.525461 -5.385185 4.474999 9.071542 -3.669272 3.009354 9.103569 -3.554826 3.047278 -2.503213 -0.024574 1.395918 -29.045485 2.860123 -2.218078 0.000001 -0.000000 -0.000000 0.000001 -0.000000 -0.000000 0.000001 -0.000000 -0.000000 -0.741312 4.374245 -5.067445 -15.830072 -5.090184 -71.814310 0.000498 -96.947691 0.000494 -18.938117 -13.829717 -2.644539 -1.355461 13.245109 0.142130 6.147285 16.933957 -6.183334 0.000000 0.000001 -0.000001 3.973190 6.239236 -64.948269 3.973219 6.239224 -64.948317 -0.000002 -0.000001 0.000005 4.178597 6.332314 -65.589630 3.973133 6.239181 -64.947695 0.000001 -0.000001 0.000000 4.238866 6.370009 -63.876291 4.107662 6.299959 -66.179540 -0.000001 -0.000000 0.000001 7.673537 7.958229 -64.895342 3.989917 2.159276 -65.176274 -0.000001 0.000001 -0.000002 0.000002 0.000001 0.000001 14.175628 5.091509 -8.411717 30.057497 -19.555375 80.729421 -0.000014 55.622175 0.000011 17.048514 7.442104 0.128535 11.720097 -2.786666 0.600001 21.272131 -18.088856 5.034226 0.000000 0.000001 -0.000004 4.711996 -6.580220 71.180741 4.800192 -6.609420 71.950668 -0.000001 0.000001 0.000002 4.855349 -6.627499 71.764101 4.800203 -6.609419 71.950654 0.000003 0.000003 -0.000003 4.809576 -6.612482 71.801462 4.800177 -6.609399 71.950681 0.000003 0.000002 -0.000001 4.923111 -6.649145 74.068887 4.800211 -6.609398 71.950729 -0.000000 -0.000002 -0.000002 0.000001 0.000000 0.000002 0.000000 -0.000000 0.000000 0.000000 -0.000000 0.000000 0.000000 -0.000000 0.000000 0.000000 -0.000000 0.000000 0.000000 -0.000000 0.000000 -0.000003 0.000000 0.000000 0.000000 -0.000000 0.000000 0.000000 -0.000000 0.000000 -0.000003 0.000000 0.000000 0.000002 0.000000 0.000001 0.000002 0.000000 0.000001 0.000000 0.000002 -0.000000 
-234.043839 74.943443 36.511250 -22.974226 109.427144 24.962576 -0.000001 0.000001 0.000000 9.035657 -16.173186 7.947120 76.749818 0.581296 -2.855117 22.552530 -8.060543 20.224165 0.000002 0.000000 -0.000002 0.000002 0.000000 -0.000001 -0.000000 -0.000000 -0.000000 -57.360721 5.740981 -10.465148 54.673400 -2.958617 1.071156 -6.412491 -2.806018 -1.742343 0.000000 0.000001 -0.000000 0.000000 0.000001 -0.000000 -0.000000 -0.000000 0.000000 15.355462 -4.917172 4.370578 8.537205 -3.353669 2.506848 8.552334 -3.269076 2.567459 -2.500652 -0.018259 1.383537 -30.015399 3.747268 -2.758562 0.000000 -0.000000 -0.000000 0.000000 -0.000000 -0.000000 0.000000 -0.000000 -0.000000 -0.756359 4.498752 -5.143756 -15.522761 -0.397556 -72.659785 0.000346 -97.822099 0.000365 -18.551231 -15.123975 -2.797392 -1.355436 13.245110 0.142130 6.147291 16.933957 -6.183334 0.000000 -0.000001 0.000000 3.973215 6.239236 -64.948255 3.973210 6.239228 -64.948337 -0.000001 -0.000000 -0.000000 4.178609 6.332298 -65.589617 3.973135 6.239208 -64.947709 0.000001 -0.000001 -0.000002 4.238888 6.370000 -63.876305 4.107669 6.299954 -66.179533 -0.000001 0.000000 -0.000004 7.673524 7.958247 -64.895321 3.989934 2.159271 -65.176288 0.000002 0.000001 -0.000002 0.000000 -0.000000 0.000001 14.125764 5.148013 -8.503218 30.855287 -16.631687 80.645895 -0.000026 55.281116 0.000021 15.498075 7.915644 -2.144185 11.720099 -2.786673 0.600017 21.272127 -18.088866 5.034203 -0.000001 -0.000005 -0.000002 4.705945 -6.578179 71.127643 4.800201 -6.609418 71.950668 -0.000005 -0.000002 -0.000000 4.848946 -6.625508 71.708476 4.800188 -6.609415 71.950668 0.000004 0.000001 -0.000000 4.803060 -6.610393 71.744608 4.800192 -6.609429 71.950633 0.000001 -0.000000 -0.000001 4.916824 -6.647234 74.014416 4.800214 -6.609419 71.950715 0.000000 -0.000003 -0.000000 0.000000 -0.000002 0.000001 -0.000002 0.000000 0.000000 -0.000002 0.000000 0.000000 -0.000002 0.000000 0.000000 -0.000002 0.000000 0.000000 -0.000002 0.000000 0.000000 -0.000003 0.000000 -0.000000 -0.000002 0.000000 0.000000 -0.000002 0.000000 0.000000 -0.000003 0.000000 -0.000000 0.000002 0.000001 -0.000000 0.000002 0.000001 -0.000000 -0.000001 0.000001 0.000000 
